<svg xmlns="http://www.w3.org/2000/svg" version="1.1" xmlns:xlink="http://www.w3.org/1999/xlink" xmlns:svgjs="http://svgjs.dev/svgjs" width="1000" height="1000" viewBox="0 0 1000 1000"><rect width="1000" height="1000" fill="#fbeaab"></rect><g transform="matrix(0.7,0,0,0.7,149.575764676507,391.89049558761997)"><svg viewBox="0 0 396 122" data-background-color="#fbeaab" preserveAspectRatio="xMidYMid meet" height="308" width="1000" xmlns="http://www.w3.org/2000/svg" xmlns:xlink="http://www.w3.org/1999/xlink"><g id="tight-bounds" transform="matrix(1,0,0,1,0.23999598300463276,0.17513700515010555)"><svg viewBox="0 0 395.52 121.6497259896998" height="121.6497259896998" width="395.52"><g><svg viewBox="0 0 598.5251938364463 184.08784847323943" height="121.6497259896998" width="395.52"><g transform="matrix(1,0,0,1,203.00519383644638,51.97770538504875)"><svg viewBox="0 0 395.52 80.13243770314193" height="80.13243770314193" width="395.52"><g><svg viewBox="0 0 395.52 80.13243770314193" height="80.13243770314193" width="395.52"><g><svg viewBox="0 0 395.52 80.13243770314193" height="80.13243770314193" width="395.52"><g transform="matrix(1,0,0,1,0,0)"><svg width="395.52" viewBox="1.0499999523162842 -35.790000915527344 180.25999450683594 36.52000045776367" height="80.13243770314193" data-palette-color="#454545"><path d="M29.86-23.54L29.86-23.54Q29.86-21.63 29.53-20.08 29.2-18.53 28.49-17.24 27.78-15.94 26.66-14.84 25.54-13.75 23.95-12.74L23.95-12.74 29.76-2.39 18.77-0.24 15.01-10.64 11.99-10.55 11.55-0.39 1.05-0.39Q1.17-5.96 1.28-11.47 1.39-16.99 1.54-22.56L1.54-22.56Q1.59-25.37 1.64-28.13 1.68-30.88 1.83-33.69L1.83-33.69Q3.54-34.33 5.2-34.74 6.86-35.16 8.53-35.39 10.21-35.62 11.93-35.71 13.65-35.79 15.45-35.79L15.45-35.79Q18.24-35.79 20.84-35.02 23.44-34.25 25.44-32.71 27.44-31.18 28.65-28.88 29.86-26.59 29.86-23.54ZM18.92-22.75L18.92-22.75Q18.92-23.78 18.64-24.63 18.36-25.49 17.81-26.11 17.26-26.73 16.44-27.09 15.63-27.44 14.53-27.44L14.53-27.44Q14.04-27.44 13.57-27.38 13.11-27.32 12.67-27.2L12.67-27.2 12.28-18.12 12.87-18.12Q13.92-18.12 15-18.38 16.09-18.65 16.96-19.21 17.82-19.78 18.37-20.65 18.92-21.53 18.92-22.75ZM32.15-35.21L54.66-35.21Q54.51-32.91 54.39-30.66 54.27-28.42 54.07-26.12L54.07-26.12 43.72-25.59 43.48-22.51 50.75-22.51 50.22-14.94 42.89-14.7 42.65-11.13 48.7-11.13 53-11.13Q52.85-8.45 52.7-5.8 52.54-3.15 52.41-0.49L52.41-0.49 31.37 0 32.15-35.21ZM83.69-34.81L84.47 0 72.26 0.59 72.16-10.69 66.55-10.69 66.21 0 55.27 0 56.2-34.33 67.82-33.79 67.08-16.26 72.5-16.26 72.55-35.11 83.69-34.81ZM116.96-17.24L116.96-17.24Q116.96-15.01 116.45-12.95 115.93-10.89 114.97-9.08 114.01-7.28 112.63-5.77 111.25-4.27 109.53-3.2 107.81-2.12 105.78-1.53 103.75-0.93 101.48-0.93L101.48-0.93Q99.28-0.93 97.29-1.49 95.31-2.05 93.57-3.06 91.84-4.08 90.43-5.51 89.03-6.93 88.04-8.68 87.05-10.42 86.5-12.43 85.95-14.43 85.95-16.6L85.95-16.6Q85.95-18.73 86.47-20.76 86.98-22.8 87.94-24.61 88.91-26.42 90.28-27.93 91.64-29.44 93.34-30.54 95.04-31.64 97.01-32.25 98.99-32.86 101.19-32.86L101.19-32.86Q104.73-32.86 107.65-31.76 110.56-30.66 112.63-28.63 114.69-26.59 115.83-23.69 116.96-20.8 116.96-17.24ZM106.12-16.6L106.12-16.6Q106.12-17.65 105.82-18.64 105.51-19.63 104.92-20.4 104.34-21.17 103.47-21.64 102.6-22.12 101.48-22.12L101.48-22.12Q100.33-22.12 99.43-21.7 98.53-21.29 97.88-20.57 97.23-19.85 96.89-18.88 96.55-17.92 96.55-16.85L96.55-16.85Q96.55-15.82 96.84-14.79 97.14-13.77 97.72-12.94 98.31-12.11 99.17-11.6 100.04-11.08 101.19-11.08L101.19-11.08Q102.34-11.08 103.25-11.54 104.17-11.99 104.8-12.76 105.44-13.53 105.78-14.53 106.12-15.53 106.12-16.6ZM143.28-35.6L156.41-35.6 154.16 0.24 143.03 0.73 143.13-18.16 138.1-2.93 133.8-2.93 129.95-16.55 129.9-0.73 118.62-0.39 119.11-34.13 131.66-34.62 136.64-18.46 143.28-35.6ZM158.8-35.21L181.31-35.21Q181.16-32.91 181.04-30.66 180.92-28.42 180.72-26.12L180.72-26.12 170.37-25.59 170.13-22.51 177.4-22.51 176.87-14.94 169.54-14.7 169.3-11.13 175.35-11.13 179.65-11.13Q179.5-8.45 179.35-5.8 179.19-3.15 179.06-0.49L179.06-0.49 158.02 0 158.8-35.21Z" opacity="1" transform="matrix(1,0,0,1,0,0)" fill="#454545" class="undefined-text-0" data-fill-palette-color="primary" id="text-0"></path></svg></g></svg></g></svg></g></svg></g><g><svg viewBox="0 0 184.08784847323943 184.08784847323943" height="184.08784847323943" width="184.08784847323943"><g><svg></svg></g><g id="icon-0"><svg viewBox="0 0 184.08784847323943 184.08784847323943" height="184.08784847323943" width="184.08784847323943"><g><rect width="167.38358074140845" height="167.38358074140845" x="8.35213386591549" y="8.35213386591549" fill="#454545" data-fill-palette-color="accent"></rect><rect width="167.38358074140845" height="167.38358074140845" x="16.70426773183098" y="-1.7763568394002505e-15" fill="#454545" opacity="0.5" data-fill-palette-color="accent"></rect></g><g transform="matrix(1,0,0,1,23.86323961690141,28.667503640676408)"><svg viewBox="0 0 136.3613692394366 126.75284119188662" height="126.75284119188662" width="136.3613692394366"><g><svg xmlns="http://www.w3.org/2000/svg" xmlns:xlink="http://www.w3.org/1999/xlink" version="1.0" x="0" y="0" viewBox="13.74041748046875 18.29694938659668 72.5190658569336 67.40910339355469" enable-background="new 0 0 100 100" xml:space="preserve" height="126.75284119188662" width="136.3613692394366" class="icon-a-0" data-fill-palette-color="background" id="a-0"><g fill="#fbeaab" data-fill-palette-color="background"><g fill="#fbeaab" data-fill-palette-color="background"><path d="M37.406 40.596c2.149-0.979 4.372-1.99 6.708-2.64 2.294-0.638 7.031-1.963 6.162-5.879 2.369-0.111 7.472-0.306 11.722-0.169 2.972 0.097 10.074-0.008 11.877-3.067 0.461-0.782 0.781-2.098-0.311-3.928-0.85-1.426-2.243-1.49-3.26-1.536-1.201-0.054-2.389-0.065-3.804-0.065-1.697 0-3.443-0.236-5.133-0.465l-0.314-0.042c-3.603-0.486-7.339-1.116-11.105-1.874-1.459-0.293-2.913-0.659-4.32-1.012-4.254-1.069-8.657-2.173-13.465-1.315-2.717 0.485-5.262 1.523-7.724 2.527l-1.152 0.468c-2.11 0.848-4.302 1.631-6.42 2.388-0.824 0.294-1.647 0.588-2.468 0.886-0.519 0.189-0.787 0.763-0.598 1.282 0.189 0.519 0.762 0.788 1.282 0.598 0.817-0.297 1.637-0.59 2.457-0.883 2.137-0.763 4.347-1.552 6.493-2.415l1.161-0.472c2.366-0.965 4.812-1.962 7.321-2.41 4.39-0.785 8.391 0.221 12.626 1.285 1.429 0.359 2.906 0.73 4.412 1.034 3.809 0.766 7.588 1.404 11.233 1.895l0.314 0.042c1.754 0.237 3.569 0.482 5.4 0.483 1.388 0 2.55 0.011 3.712 0.063 1.035 0.047 1.375 0.127 1.635 0.563 0.713 1.196 0.406 1.716 0.305 1.887-0.96 1.627-5.904 2.223-10.089 2.084-4.869-0.16-10.81 0.113-12.65 0.208-1.407-1.904-3.846-1.988-5.13-1.684l-15.25 2.311c-0.546 0.083-0.921 0.593-0.839 1.138 0.083 0.546 0.595 0.924 1.139 0.839l15.324-2.325c0.306-0.068 3-0.594 3.658 2.041 0.441 1.765-1.575 2.713-4.794 3.608-2.431 0.676-4.726 1.721-6.944 2.731-1.1 0.5-2.237 1.019-3.363 1.477-1.538 0.627-3.324 1.316-5.063 1.565-2.978 0.425-6.109 0.283-9.138 0.144-1.369-0.063-2.785-0.127-4.175-0.139-0.584-0.025-1.004 0.439-1.008 0.991s0.439 1.004 0.991 1.009c1.353 0.012 2.75 0.075 4.1 0.137 1.54 0.07 3.106 0.142 4.678 0.142 1.613 0 3.232-0.075 4.835-0.305 1.964-0.28 3.887-1.021 5.535-1.692C35.132 41.631 36.288 41.105 37.406 40.596z" fill="#fbeaab" data-fill-palette-color="background"></path><path d="M86.239 83.933l-0.496-2.413c-2.08-10.111-4.983-20.197-7.542-28.857-0.295-0.999-0.588-1.998-0.878-2.998-0.103-0.354-0.392-0.623-0.753-0.7-0.363-0.077-0.734 0.051-0.972 0.333l-4.927 5.837c-0.573-2.149-1.047-3.899-1.348-4.954-1.825-6.389-6.061-6.475-6.241-6.475 0 0-5.86-0.018-9.321-0.018-3.914 0-6.409 3.261-6.528 3.42l-3.813 5.353-12.878 2.281c-0.506 0.09-0.862 0.549-0.823 1.061 0.019 0.242 0.036 0.561 0.057 0.94 0.309 5.582 1.009 10.889 4.014 11.91 2.83 0.962 5.824 1.227 8.718 1.484 0.603 0.053 1.206 0.106 1.806 0.166 0.24 2.646 1.015 10.832 1.697 13.833 0.105 0.464 0.518 0.778 0.974 0.779 0.073 0 0.148-0.008 0.223-0.025 0.539-0.123 0.876-0.658 0.753-1.197-0.771-3.393-1.718-14.275-1.728-14.385-0.041-0.475-0.412-0.855-0.885-0.908-0.882-0.098-1.772-0.177-2.663-0.255-2.777-0.246-5.649-0.5-8.252-1.386-1.42-0.483-2.315-3.89-2.66-10.127-0.001-0.026-0.003-0.051-0.004-0.076l12.402-2.197c0.258-0.046 0.488-0.191 0.641-0.404l4.035-5.666c0.02-0.026 1.988-2.601 4.914-2.601 3.439 0 9.249 0.018 9.3 0.018 0 0 0 0 0 0 0.12 0.004 2.949 0.159 4.339 5.025 0.319 1.118 0.837 3.031 1.458 5.368l-5.505 0.794c-2.611 0.286-3.766 2.367-4.785 4.203-0.29 0.523-0.564 1.017-0.862 1.456-0.091 0.134-0.191 0.308-0.299 0.499-0.136 0.24-0.419 0.74-0.516 0.817-0.058 0.016-0.113 0.038-0.167 0.064-0.088 0.043-2.171 1.056-3.612 2.016-0.3 0.2-0.469 0.546-0.442 0.906 0.022 0.303 0.615 7.438 6.148 8.167 3.272 0.431 5.6 0.544 6.804 0.571l0.847 9.206c0.047 0.519 0.483 0.908 0.995 0.908 0.03 0 0.062-0.001 0.093-0.004 0.55-0.05 0.955-0.537 0.903-1.088l-0.93-10.109c-0.048-0.524-0.503-0.922-1.02-0.907-0.028 0-2.752 0.056-7.431-0.56-3.173-0.417-4.099-4.272-4.339-5.756 1.136-0.696 2.496-1.374 2.796-1.521 0.792-0.279 1.263-1.11 1.61-1.723 0.079-0.139 0.149-0.266 0.215-0.364 0.348-0.513 0.657-1.069 0.955-1.608 1.041-1.874 1.778-3.023 3.288-3.189l5.77-0.832 1.284-0.185c0.243-0.035 0.464-0.158 0.621-0.344l0.018-0.021 4.628-5.483c0.119 0.406 0.239 0.812 0.358 1.217 2.547 8.621 5.437 18.659 7.501 28.694l0.496 2.412c0.111 0.541 0.638 0.891 1.18 0.779C86.001 85.003 86.35 84.474 86.239 83.933z" fill="#fbeaab" data-fill-palette-color="background"></path></g></g></svg></g></svg></g></svg></g></svg></g></svg></g><defs></defs></svg><rect width="395.52" height="121.6497259896998" fill="none" stroke="none" visibility="hidden"></rect></g></svg></g></svg>